<svg width="193" height="46" viewBox="0 0 193 46" fill="none" xmlns="http://www.w3.org/2000/svg">
<path d="M6.99688 36.384C5.06088 36.384 3.53288 35.72 2.41288 34.392C1.30888 33.048 0.756875 31.408 0.756875 29.472V16.272C0.756875 14.224 1.30888 12.56 2.41288 11.28C3.51688 10 5.06088 9.36 7.04488 9.36C8.34088 9.36 9.45288 9.656 10.3809 10.248C11.3249 10.84 12.0449 11.648 12.5409 12.672C13.0369 13.68 13.2849 14.832 13.2849 16.128V23.76H5.26888V29.472C5.26888 30.128 5.41288 30.736 5.70088 31.296C6.00488 31.84 6.45288 32.112 7.04488 32.112C7.66888 32.112 8.10888 31.856 8.36488 31.344C8.63688 30.832 8.77288 30.208 8.77288 29.472V26.592H13.2849V29.616C13.2849 31.648 12.7329 33.288 11.6289 34.536C10.5409 35.768 8.99688 36.384 6.99688 36.384ZM5.26888 19.968H8.77288V16.272C8.77288 15.552 8.64488 14.928 8.38888 14.4C8.14888 13.856 7.70088 13.584 7.04488 13.584C6.43688 13.584 5.98888 13.864 5.70088 14.424C5.41288 14.968 5.26888 15.584 5.26888 16.272V19.968ZM18.9384 36.384C18.1384 36.384 17.4584 36.136 16.8984 35.64C16.3384 35.144 15.9144 34.504 15.6264 33.72C15.3384 32.92 15.1944 32.096 15.1944 31.248V14.496C15.1944 13.648 15.3304 12.832 15.6024 12.048C15.8904 11.264 16.3144 10.624 16.8744 10.128C17.4344 9.616 18.1224 9.36 18.9384 9.36C19.5464 9.36 20.1864 9.568 20.8584 9.984C21.5304 10.4 22.1704 10.896 22.7784 11.472V0.719999H27.6264V36H22.7784V34.272C22.1384 34.832 21.5064 35.328 20.8824 35.76C20.2584 36.176 19.6104 36.384 18.9384 36.384ZM21.2424 31.824C21.6104 31.824 21.9544 31.672 22.2744 31.368C22.6104 31.064 22.7784 30.688 22.7784 30.24V15.504C22.7784 15.12 22.6104 14.76 22.2744 14.424C21.9544 14.088 21.6104 13.92 21.2424 13.92C20.8904 13.92 20.6024 14.072 20.3784 14.376C20.1544 14.664 20.0424 15.04 20.0424 15.504V30.24C20.0424 30.688 20.1544 31.064 20.3784 31.368C20.6024 31.672 20.8904 31.824 21.2424 31.824ZM37.7454 45.408C36.3854 45.408 35.1134 45.256 33.9294 44.952C32.7454 44.648 31.7854 44.152 31.0494 43.464C30.3294 42.792 29.9694 41.904 29.9694 40.8C29.9694 39.952 30.2014 39.216 30.6654 38.592C31.1454 37.968 31.6894 37.456 32.2974 37.056C32.9054 36.672 33.3934 36.432 33.7614 36.336C32.9774 36.112 32.2894 35.728 31.6974 35.184C31.1214 34.64 30.8334 33.856 30.8334 32.832C30.8334 31.84 31.1534 31.032 31.7934 30.408C32.4334 29.784 33.1214 29.28 33.8574 28.896C32.9774 28.32 32.2894 27.568 31.7934 26.64C31.3134 25.696 31.0734 24.544 31.0734 23.184V16.032C31.0734 14.064 31.6174 12.464 32.7054 11.232C33.8094 9.984 35.3134 9.36 37.2174 9.36C38.4494 9.36 39.4494 9.6 40.2174 10.08C41.0014 10.544 41.6174 11.104 42.0654 11.76C42.5294 10.976 43.1534 10.384 43.9374 9.984C44.7214 9.568 45.4254 9.36 46.0494 9.36V13.68C45.4094 13.68 44.8494 13.736 44.3694 13.848C43.8894 13.944 43.5054 14.08 43.2174 14.256C43.2654 14.368 43.3134 14.6 43.3614 14.952C43.4254 15.304 43.4574 15.616 43.4574 15.888V23.328C43.4574 25.184 42.8894 26.728 41.7534 27.96C40.6174 29.192 39.1054 29.808 37.2174 29.808C36.7694 29.808 36.4654 29.792 36.3054 29.76C36.0974 29.952 35.9294 30.144 35.8014 30.336C35.6894 30.528 35.6334 30.736 35.6334 30.96C35.6334 31.472 35.9214 31.84 36.4974 32.064C37.0894 32.272 37.8734 32.448 38.8494 32.592C40.9134 32.896 42.5854 33.496 43.8654 34.392C45.1614 35.288 45.8094 36.72 45.8094 38.688C45.8094 40.224 45.4174 41.488 44.6334 42.48C43.8654 43.472 42.8654 44.208 41.6334 44.688C40.4014 45.168 39.1054 45.408 37.7454 45.408ZM37.8414 41.328C38.6414 41.328 39.3374 41.184 39.9294 40.896C40.5214 40.608 40.8174 40.16 40.8174 39.552C40.8174 38.944 40.6334 38.528 40.2654 38.304C39.9134 38.096 39.3134 37.888 38.4654 37.68L36.4494 37.2C35.9534 37.488 35.5294 37.816 35.1774 38.184C34.8414 38.552 34.6734 38.992 34.6734 39.504C34.6734 40 34.9214 40.424 35.4174 40.776C35.9134 41.144 36.7214 41.328 37.8414 41.328ZM37.2654 25.776C37.7774 25.776 38.1454 25.6 38.3694 25.248C38.5934 24.896 38.7054 24.368 38.7054 23.664V15.984C38.7054 15.344 38.6014 14.824 38.3934 14.424C38.1854 14.024 37.8094 13.824 37.2654 13.824C36.7214 13.824 36.3454 14.032 36.1374 14.448C35.9294 14.864 35.8254 15.376 35.8254 15.984V23.664C35.8254 24.368 35.9374 24.896 36.1614 25.248C36.3854 25.6 36.7534 25.776 37.2654 25.776ZM53.1219 36.384C51.1859 36.384 49.6579 35.72 48.5379 34.392C47.4339 33.048 46.8819 31.408 46.8819 29.472V16.272C46.8819 14.224 47.4339 12.56 48.5379 11.28C49.6419 10 51.1859 9.36 53.1699 9.36C54.4659 9.36 55.5779 9.656 56.5059 10.248C57.4499 10.84 58.1699 11.648 58.6659 12.672C59.1619 13.68 59.4099 14.832 59.4099 16.128V23.76H51.3939V29.472C51.3939 30.128 51.5379 30.736 51.8259 31.296C52.1299 31.84 52.5779 32.112 53.1699 32.112C53.7939 32.112 54.2339 31.856 54.4899 31.344C54.7619 30.832 54.8979 30.208 54.8979 29.472V26.592H59.4099V29.616C59.4099 31.648 58.8579 33.288 57.7539 34.536C56.6659 35.768 55.1219 36.384 53.1219 36.384ZM51.3939 19.968H54.8979V16.272C54.8979 15.552 54.7699 14.928 54.5139 14.4C54.2739 13.856 53.8259 13.584 53.1699 13.584C52.5619 13.584 52.1139 13.864 51.8259 14.424C51.5379 14.968 51.3939 15.584 51.3939 16.272V19.968ZM62.261 45.408C62.053 45.408 61.805 45.4 61.517 45.384C61.229 45.368 60.949 45.336 60.677 45.288V40.992C60.725 41.008 60.853 41.024 61.061 41.04C61.269 41.072 61.405 41.088 61.469 41.088C62.365 41.088 63.085 40.848 63.629 40.368C64.189 39.888 64.581 39.248 64.805 38.448C64.885 38.208 64.925 37.928 64.925 37.608C64.941 37.288 64.949 37.008 64.949 36.768L60.485 9.744H65.237L67.157 26.112L67.253 27.936H67.445L67.541 26.112L69.461 9.744H74.213L69.557 37.968C69.381 39.376 68.981 40.64 68.357 41.76C67.749 42.896 66.933 43.784 65.909 44.424C64.885 45.08 63.669 45.408 62.261 45.408ZM75.7625 36V9.744H80.6105V11.952C81.3945 11.232 82.1065 10.624 82.7465 10.128C83.4025 9.616 84.0345 9.36 84.6425 9.36C85.5065 9.36 86.2025 9.656 86.7305 10.248C87.2585 10.84 87.6505 11.52 87.9065 12.288C88.5945 11.584 89.3065 10.92 90.0425 10.296C90.7945 9.672 91.5545 9.36 92.3225 9.36C93.1225 9.36 93.7945 9.616 94.3385 10.128C94.8825 10.64 95.2905 11.288 95.5625 12.072C95.8345 12.856 95.9705 13.664 95.9705 14.496V36H91.4105V15.456C91.4105 14.944 91.2825 14.584 91.0265 14.376C90.7865 14.168 90.4825 14.064 90.1145 14.064C89.7465 14.064 89.3945 14.208 89.0585 14.496C88.7225 14.768 88.4665 15.04 88.2905 15.312V36H83.7305V15.456C83.7305 14.944 83.6025 14.584 83.3465 14.376C83.1065 14.168 82.8025 14.064 82.4345 14.064C82.0665 14.064 81.7145 14.208 81.3785 14.496C81.0425 14.768 80.7865 15.04 80.6105 15.312V36H75.7625ZM102.124 36.384C101.004 36.384 100.036 35.816 99.2203 34.68C98.4043 33.544 97.9963 31.808 97.9963 29.472C97.9963 27.216 98.4763 25.4 99.4363 24.024C100.412 22.648 101.868 21.456 103.804 20.448C104.412 20.128 104.924 19.84 105.34 19.584C105.756 19.328 106.012 19.088 106.108 18.864V15.984C106.108 15.328 106.028 14.768 105.868 14.304C105.724 13.824 105.356 13.584 104.764 13.584C104.22 13.584 103.852 13.84 103.66 14.352C103.468 14.848 103.372 15.472 103.372 16.224V17.472H98.5243V16.368C98.5243 14.928 98.8043 13.688 99.3643 12.648C99.9403 11.592 100.716 10.784 101.692 10.224C102.684 9.648 103.804 9.36 105.052 9.36C106.252 9.36 107.292 9.64 108.172 10.2C109.052 10.744 109.732 11.504 110.212 12.48C110.708 13.44 110.956 14.544 110.956 15.792V31.44C110.956 32.608 110.988 33.52 111.052 34.176C111.116 34.816 111.196 35.424 111.292 36H106.54C106.332 35.744 106.204 35.368 106.156 34.872C106.124 34.376 106.108 34.048 106.108 33.888H105.772C105.372 34.624 104.86 35.224 104.236 35.688C103.628 36.152 102.924 36.384 102.124 36.384ZM104.092 31.632C104.652 31.632 105.124 31.44 105.508 31.056C105.908 30.672 106.108 30.256 106.108 29.808V23.568C104.94 24.064 104.084 24.816 103.54 25.824C103.012 26.816 102.748 27.936 102.748 29.184C102.748 29.728 102.852 30.272 103.06 30.816C103.268 31.36 103.612 31.632 104.092 31.632ZM113.924 36V0.719999H118.772V36H113.924ZM121.659 36V0.719999H126.507V36H121.659ZM135.207 36.384C134.071 36.384 133.079 36.192 132.231 35.808C131.383 35.424 130.679 34.88 130.119 34.176C129.559 33.456 129.135 32.608 128.847 31.632C128.575 30.656 128.439 29.568 128.439 28.368H132.951C132.951 29.44 133.119 30.376 133.455 31.176C133.807 31.96 134.391 32.352 135.207 32.352C135.911 32.352 136.367 32.056 136.575 31.464C136.783 30.872 136.887 30.192 136.887 29.424C136.887 28.528 136.535 27.616 135.831 26.688C135.143 25.744 134.423 24.904 133.671 24.168C132.375 22.888 131.295 21.624 130.431 20.376C129.583 19.128 129.159 17.664 129.159 15.984C129.159 14 129.679 12.4 130.719 11.184C131.759 9.968 133.239 9.36 135.159 9.36C136.311 9.36 137.279 9.512 138.063 9.816C138.863 10.12 139.503 10.576 139.983 11.184C140.463 11.792 140.807 12.536 141.015 13.416C141.239 14.296 141.351 15.312 141.351 16.464H136.839C136.839 15.632 136.751 14.912 136.575 14.304C136.399 13.696 135.959 13.392 135.255 13.392C134.679 13.392 134.271 13.64 134.031 14.136C133.791 14.616 133.671 15.232 133.671 15.984C133.671 16.864 133.879 17.648 134.295 18.336C134.727 19.008 135.439 19.832 136.431 20.808C137.679 22.024 138.815 23.32 139.839 24.696C140.879 26.072 141.399 27.568 141.399 29.184C141.399 30.24 141.255 31.208 140.967 32.088C140.695 32.968 140.287 33.728 139.743 34.368C139.215 35.008 138.567 35.504 137.799 35.856C137.047 36.208 136.183 36.384 135.207 36.384ZM150.365 36.384C148.845 36.384 147.685 36.048 146.885 35.376C146.085 34.704 145.533 33.744 145.229 32.496C144.941 31.248 144.797 29.76 144.797 28.032V14.112H142.349V9.744H144.797V3.264H149.645V9.744H152.981V14.112H149.645V28.728C149.645 29.752 149.797 30.512 150.101 31.008C150.405 31.488 150.901 31.728 151.589 31.728C151.893 31.728 152.157 31.704 152.381 31.656C152.621 31.608 152.813 31.552 152.957 31.488V35.928C152.637 36.056 152.285 36.16 151.901 36.24C151.533 36.336 151.021 36.384 150.365 36.384ZM160.395 36.336C158.459 36.336 156.939 35.688 155.835 34.392C154.731 33.08 154.179 31.424 154.179 29.424V16.272C154.179 14.272 154.731 12.624 155.835 11.328C156.939 10.016 158.459 9.36 160.395 9.36C162.315 9.36 163.827 10.016 164.931 11.328C166.051 12.624 166.611 14.272 166.611 16.272V29.424C166.611 31.424 166.051 33.08 164.931 34.392C163.827 35.688 162.315 36.336 160.395 36.336ZM160.395 32.112C161.019 32.112 161.451 31.864 161.691 31.368C161.931 30.856 162.051 30.208 162.051 29.424V16.272C162.051 15.472 161.931 14.824 161.691 14.328C161.451 13.832 161.019 13.584 160.395 13.584C159.771 13.584 159.339 13.832 159.099 14.328C158.859 14.824 158.739 15.472 158.739 16.272V29.424C158.739 30.224 158.859 30.872 159.099 31.368C159.339 31.864 159.771 32.112 160.395 32.112ZM168.763 36V9.744H173.611V12.672C173.707 12.032 174.003 11.464 174.499 10.968C174.995 10.472 175.595 10.08 176.299 9.792C177.019 9.504 177.739 9.36 178.459 9.36V14.736C178.251 14.656 178.027 14.608 177.787 14.592C177.563 14.56 177.339 14.544 177.115 14.544C176.059 14.544 175.211 14.832 174.571 15.408C173.931 15.984 173.611 16.768 173.611 17.76V36H168.763ZM185.966 36.384C184.03 36.384 182.502 35.72 181.382 34.392C180.278 33.048 179.726 31.408 179.726 29.472V16.272C179.726 14.224 180.278 12.56 181.382 11.28C182.486 10 184.03 9.36 186.014 9.36C187.31 9.36 188.422 9.656 189.35 10.248C190.294 10.84 191.014 11.648 191.51 12.672C192.006 13.68 192.254 14.832 192.254 16.128V23.76H184.238V29.472C184.238 30.128 184.382 30.736 184.67 31.296C184.974 31.84 185.422 32.112 186.014 32.112C186.638 32.112 187.078 31.856 187.334 31.344C187.606 30.832 187.742 30.208 187.742 29.472V26.592H192.254V29.616C192.254 31.648 191.702 33.288 190.598 34.536C189.51 35.768 187.966 36.384 185.966 36.384ZM184.238 19.968H187.742V16.272C187.742 15.552 187.614 14.928 187.358 14.4C187.118 13.856 186.67 13.584 186.014 13.584C185.406 13.584 184.958 13.864 184.67 14.424C184.382 14.968 184.238 15.584 184.238 16.272V19.968Z" fill="white"/>
</svg>
