<svg width="225" height="42" viewBox="0 0 225 42" fill="none" xmlns="http://www.w3.org/2000/svg">
<path d="M29.806 41L36.846 1H48.302L54.83 15.208C54.958 15.5067 55.022 15.9333 55.022 16.488C55.022 16.7867 55.0007 17.1067 54.958 17.448C54.958 17.7467 54.9367 18.024 54.894 18.28H55.406L58.478 1H70.638L63.598 41H52.142L45.614 26.792C45.5713 26.6213 45.5073 26.4293 45.422 26.216C45.3793 25.96 45.358 25.6827 45.358 25.384C45.358 25.128 45.358 24.8507 45.358 24.552C45.4007 24.2533 45.4433 23.976 45.486 23.72H44.974L41.966 41H29.806ZM34.35 3.88L7.278 1H34.862L34.35 3.88ZM33.326 10.024L6.19 7.144H33.774L33.326 10.024ZM32.238 16.168L5.102 13.288H32.75L32.238 16.168ZM31.15 22.312L4.014 19.432H31.662L31.15 22.312ZM30.062 28.456L2.926 25.576H30.574L30.062 28.456ZM28.974 34.6L1.838 31.72H29.486L28.974 34.6ZM27.886 40.808L0.75 37.928H28.398L27.886 40.808ZM88.0835 41L89.9395 30.12L84.1795 1H97.6195L98.4515 15.08H98.8995L104.788 1H118.228L102.1 30.12L100.244 41H88.0835ZM82.8355 3.88L55.7635 1H82.2595L82.8355 3.88ZM83.9875 10.024L56.9155 7.144H83.4115L83.9875 10.024ZM85.2035 16.168L58.1315 13.288H84.6275L85.2035 16.168ZM86.4195 22.312L59.2835 19.432H85.8435L86.4195 22.312ZM87.6355 28.456L60.4995 25.576H87.0595L87.6355 28.456ZM87.1875 34.6L60.1155 31.72H87.6355L87.1875 34.6ZM86.0995 40.808L59.0275 37.928H86.6115L86.0995 40.808ZM125.991 41L135.335 1H151.207L152.359 21.352H152.807L161.127 1H176.999L172.263 41H159.527L162.215 21.608H161.767L153.767 41H144.487L143.143 21.608H142.823L138.663 41H125.991ZM132.711 3.88L105.894 1H133.351L132.711 3.88ZM131.239 10.024L104.422 7.144H131.943L131.239 10.024ZM129.831 16.168L102.95 13.288H130.471L129.831 16.168ZM128.359 22.312L101.478 19.432H129.062L128.359 22.312ZM126.951 28.456L100.006 25.576H127.591L126.951 28.456ZM125.479 34.6L98.5345 31.72H126.183L125.479 34.6ZM124.071 40.808L97.0625 37.928H124.711L124.071 40.808ZM206.915 41.96C201.368 41.96 197.464 40.8933 195.203 38.76C192.984 36.584 191.875 33.384 191.875 29.16C191.875 27.9653 191.96 26.7067 192.131 25.384C192.301 24.0187 192.515 22.568 192.771 21.032C193.581 16.3813 194.755 12.52 196.291 9.448C197.827 6.33333 200.024 3.98666 202.883 2.408C205.741 0.82933 209.539 0.0399971 214.275 0.0399971C215.213 0.0399971 216.323 0.103998 217.603 0.231998C218.883 0.359999 220.12 0.551999 221.315 0.807999C222.552 1.064 223.491 1.36266 224.131 1.704L220.547 11.496C219.352 11.1973 218.072 10.984 216.707 10.856C215.341 10.6853 214.232 10.6 213.379 10.6C211.416 10.6 209.923 10.792 208.899 11.176C207.875 11.56 207.256 12.4347 207.043 13.8L204.099 30.568C204.952 30.7387 205.763 30.8667 206.531 30.952C207.341 31.0373 208.109 31.08 208.835 31.08C210.456 31.08 212.099 30.952 213.763 30.696C215.469 30.3973 216.984 30.0133 218.307 29.544L217.283 40.296C215.789 40.8933 214.211 41.32 212.547 41.576C210.925 41.832 209.048 41.96 206.915 41.96ZM198.403 3.112L178.819 1H201.283C200.771 1.29867 200.28 1.61867 199.811 1.96C199.341 2.30133 198.872 2.68533 198.403 3.112ZM193.923 9.704L169.986 7.144H195.203C194.989 7.57066 194.776 7.99733 194.562 8.424C194.349 8.808 194.136 9.23467 193.923 9.704ZM191.811 15.912L166.978 13.288H192.579L191.811 15.912ZM190.595 22.12L165.442 19.432H191.043L190.851 20.712C190.808 20.968 190.765 21.224 190.723 21.48C190.68 21.6933 190.637 21.9067 190.595 22.12ZM189.955 28.264L164.738 25.576H190.147C190.019 26.5147 189.955 27.4107 189.955 28.264ZM190.467 34.408L165.57 31.72H190.019C190.104 32.1893 190.168 32.6587 190.211 33.128C190.296 33.5547 190.381 33.9813 190.467 34.408ZM193.859 40.296L171.714 37.928H191.939C192.493 38.9093 193.133 39.6987 193.859 40.296Z" fill="white"/>
</svg>
