<svg width="133" height="61" viewBox="0 0 133 61" fill="none" xmlns="http://www.w3.org/2000/svg">
<path d="M9.49275 49.66C8.72475 49.4467 8.10608 49.2547 7.63675 49.084C7.16742 48.956 6.93275 48.892 6.93275 48.892C7.01808 48.6787 6.97542 48.4867 6.80475 48.316C6.67675 48.1453 6.37808 48.0387 5.90875 47.996C5.26875 47.5693 4.60742 46.972 3.92475 46.204C3.24208 45.436 2.64475 44.6467 2.13275 43.836C1.62075 43.0253 1.27942 42.428 1.10875 42.044C0.810084 41.404 0.831417 41.02 1.17275 40.892C1.51408 40.7213 1.91942 40.5293 2.38875 40.316C2.85808 39.9747 3.34875 39.7187 3.86075 39.548C4.41542 39.3773 4.86342 39.6547 5.20475 40.38C5.75942 41.3613 6.61275 42.1933 7.76475 42.876C8.95942 43.5587 10.3034 43.964 11.7968 44.092C13.3328 44.22 14.8688 43.964 16.4048 43.324C17.4288 42.8547 17.9834 42.2147 18.0688 41.404C18.1541 40.5507 17.8341 39.5693 17.1088 38.46C16.9808 38.1187 16.7888 37.8413 16.5328 37.628C16.3194 37.4147 15.9781 37.1373 15.5088 36.796C15.0821 36.4547 14.4634 35.9 13.6528 35.132C13.0128 34.8333 12.4154 34.556 11.8608 34.3C11.3488 34.044 10.7941 33.7667 10.1968 33.468C9.51408 33.1267 8.74608 32.6573 7.89275 32.06C7.03942 31.42 6.25008 30.7373 5.52475 30.012C4.79942 29.244 4.24475 28.5187 3.86075 27.836C3.17808 27.196 2.75142 26.3213 2.58075 25.212C2.41008 24.06 2.43142 22.844 2.64475 21.564C2.90075 20.284 3.30608 19.132 3.86075 18.108C4.11675 17.5107 4.58608 16.7427 5.26875 15.804C5.95142 14.8227 6.71942 13.82 7.57275 12.796C8.42608 11.772 9.23675 10.8547 10.0048 10.044C10.8154 9.19067 11.4554 8.61467 11.9248 8.316C12.2661 7.97466 12.6288 7.63333 13.0128 7.292C13.3968 6.908 13.5888 6.716 13.5888 6.716C13.6314 6.50267 13.6954 6.396 13.7808 6.396C13.9088 6.396 13.9728 6.396 13.9728 6.396C14.1861 6.268 14.6554 6.05466 15.3808 5.756C16.1061 5.45733 16.8954 4.90267 17.7488 4.092C20.6074 2.72667 23.0394 1.80933 25.0448 1.34C27.0501 0.827998 28.6288 0.571999 29.7808 0.571999C30.8474 0.614665 31.8928 0.913331 32.9168 1.468C33.9408 1.98 34.8154 2.64133 35.5408 3.452C36.3088 4.26267 36.7568 5.18 36.8848 6.204C37.1834 7.228 37.0341 8.46533 36.4368 9.916C35.8821 11.324 35.0928 12.668 34.0688 13.948C33.0874 15.1853 32.0634 16.1027 30.9968 16.7C29.8021 17.212 28.7781 17.276 27.9248 16.892C27.1141 16.508 26.7301 15.9107 26.7728 15.1C26.7728 14.7587 26.8794 14.3533 27.0928 13.884C27.3488 13.4147 28.0101 12.5827 29.0768 11.388C30.4421 9.38266 31.1674 7.95333 31.2528 7.1C31.3381 6.24667 30.9541 5.756 30.1007 5.628C29.8448 5.54267 29.3541 5.564 28.6287 5.692C27.9034 5.82 27.1141 5.99067 26.2607 6.204C25.4501 6.37467 24.7248 6.56667 24.0848 6.78C23.4874 6.99333 23.1888 7.14266 23.1888 7.228C23.1888 7.228 23.1888 7.292 23.1888 7.42C23.1888 7.548 23.1034 7.59067 22.9328 7.548C22.8474 7.548 22.5488 7.69733 22.0368 7.996C21.5674 8.252 20.9914 8.59333 20.3088 9.02C19.6261 9.44667 18.9434 9.89467 18.2608 10.364C17.6208 10.7907 17.0661 11.1747 16.5968 11.516C16.1274 11.8573 15.8714 12.0707 15.8288 12.156C15.7434 12.6253 15.2528 13.052 14.3568 13.436C13.5034 13.948 12.7568 14.6733 12.1168 15.612C11.4768 16.5507 10.7301 17.7453 9.87675 19.196C9.15142 20.1773 8.63942 21.244 8.34075 22.396C8.04208 23.5053 8.04208 24.4013 8.34075 25.084C8.55408 25.7667 9.13008 26.4493 10.0688 27.132C11.0501 27.772 12.3728 28.5827 14.0368 29.564C15.4874 30.3747 16.8528 31.228 18.1328 32.124C19.4128 33.02 20.5008 33.8947 21.3968 34.748C22.2928 35.5587 22.8688 36.2413 23.1248 36.796C23.6368 37.5213 23.9354 38.3533 24.0208 39.292C24.1488 40.2307 24.1488 41.148 24.0208 42.044C23.9354 42.8973 23.8074 43.6013 23.6368 44.156C23.3381 44.8387 22.8688 45.564 22.2288 46.332C21.6314 47.1 21.0768 47.4627 20.5648 47.42C20.0954 47.548 19.7328 47.6973 19.4768 47.868C19.2634 48.0387 19.0074 48.188 18.7088 48.316C18.4101 48.4867 17.7061 48.6787 16.5968 48.892C15.4874 49.148 14.2714 49.34 12.9488 49.468C11.6261 49.6387 10.4741 49.7027 9.49275 49.66ZM31.4673 44.156C31.2966 43.8147 30.9126 43.4733 30.3153 43.132C29.7606 42.7907 29.4833 42.5347 29.4833 42.364C29.4833 42.1933 29.3766 41.9373 29.1633 41.596C28.9926 41.212 28.8219 40.9347 28.6513 40.764C28.4379 40.508 28.5019 39.8893 28.8433 38.908C29.1846 37.884 29.6966 36.6467 30.3793 35.196C31.0619 33.7453 31.8086 32.2733 32.6193 30.78C32.9606 30.4387 33.3019 29.9907 33.6433 29.436C33.9846 28.8813 34.2406 28.5187 34.4113 28.348C34.4113 28.1773 34.4753 28.028 34.6033 27.9C34.7313 27.7293 34.8806 27.644 35.0513 27.644L35.5633 26.62C35.6486 26.4493 35.9046 26.108 36.3313 25.596C36.8006 25.084 37.3553 24.5293 37.9953 23.932C38.6353 23.292 39.2753 22.6947 39.9153 22.14C40.5979 21.5853 41.1526 21.18 41.5793 20.924C42.4753 20.3267 43.3926 20.0493 44.3313 20.092C45.3126 20.1347 46.1446 20.4333 46.8273 20.988C46.9553 21.116 47.2326 21.372 47.6593 21.756C48.1286 22.14 48.6406 22.5667 49.1953 23.036C49.7926 23.5053 50.3046 23.932 50.7313 24.316L53.0993 26.428L52.0113 29.628C51.4566 31.3347 51.3073 32.828 51.5633 34.108C51.8193 35.388 52.2246 36.4973 52.7793 37.436C52.9926 37.9053 53.2699 38.268 53.6113 38.524C53.9953 38.78 54.4859 38.9507 55.0833 39.036C55.4246 39.0787 55.7446 39.2067 56.0433 39.42C56.3419 39.6333 56.4913 39.9747 56.4913 40.444C56.4913 41.468 56.2993 42.2147 55.9153 42.684C55.5739 43.1107 55.1899 43.3667 54.7633 43.452C53.3553 43.6227 52.0113 43.4733 50.7313 43.004C49.4513 42.5347 48.2993 41.3187 47.2753 39.356C47.1046 39.1 46.8699 38.6307 46.5713 37.948C46.3153 37.2227 46.1659 36.7533 46.1233 36.54C45.9526 36.7533 45.7179 37.0307 45.4193 37.372C45.1633 37.6707 44.9073 37.948 44.6513 38.204C41.6219 41.276 39.0193 43.2813 36.8433 44.22C34.7099 45.116 32.9179 45.0947 31.4673 44.156ZM34.9873 38.844C35.2859 38.8867 35.7553 38.7373 36.3953 38.396C37.0353 38.012 37.8886 37.3933 38.9553 36.54C40.4059 35.3027 41.6006 34.2787 42.5393 33.468C43.4779 32.6573 44.3953 31.612 45.2913 30.332L46.6993 28.028C46.2726 27.0467 45.8886 26.4067 45.5473 26.108C45.2059 25.8093 44.8646 25.66 44.5233 25.66C43.9686 25.66 43.3073 26.0227 42.5393 26.748C41.7713 27.4307 40.8966 28.4547 39.9153 29.82C38.9766 31.1427 37.9099 32.8067 36.7153 34.812C36.1606 35.7507 35.7339 36.668 35.4353 37.564C35.1366 38.4173 34.9873 38.844 34.9873 38.844ZM61.1818 46.204C60.3711 46.4173 59.6458 46.1827 59.0058 45.5C58.3658 44.86 57.9178 43.9 57.6618 42.62C57.4058 41.34 57.4484 39.9107 57.7898 38.332C58.0031 37.82 58.1738 37.3293 58.3018 36.86C58.4298 36.348 58.4938 35.9427 58.4938 35.644C58.5791 35.2173 58.7498 34.5987 59.0058 33.788C59.2618 32.9347 59.5391 32.06 59.8378 31.164C60.1364 30.268 60.4138 29.4787 60.6698 28.796C60.9684 28.0707 61.1604 27.6227 61.2458 27.452C61.4164 27.452 61.5658 27.3027 61.6938 27.004C61.8218 26.7053 61.8858 26.4067 61.8858 26.108C61.8858 25.7667 61.9498 25.3827 62.0778 24.956C62.2484 24.5293 62.4191 24.2307 62.5898 24.06C62.5898 23.8467 62.6324 23.612 62.7178 23.356C62.8458 23.0573 62.9098 22.8227 62.9098 22.652C62.9098 22.4813 62.9524 22.3107 63.0378 22.14C63.1658 21.9693 63.2298 21.7987 63.2298 21.628C63.5284 21.0733 63.9124 20.1987 64.3818 19.004C64.8938 17.7667 65.4271 16.4013 65.9818 14.908C66.5791 13.4147 67.1338 11.9427 67.6458 10.492C68.1578 9.04133 68.5631 7.82533 68.8618 6.844C69.2031 5.82 69.3738 5.20133 69.3738 4.988C69.3738 4.64666 69.5018 4.32667 69.7578 4.028C70.0138 3.72933 70.3124 3.58 70.6538 3.58C70.7818 3.452 71.0804 3.36666 71.5498 3.324C72.0191 3.23867 72.3391 3.196 72.5098 3.196C72.5098 3.196 72.5951 3.28133 72.7658 3.452C72.9364 3.62266 73.1924 3.87866 73.5338 4.22C73.8751 4.51867 74.1951 4.86 74.4938 5.244C74.8351 5.628 75.0058 6.076 75.0058 6.588C75.0058 7.14266 74.9204 7.676 74.7498 8.188C74.6218 8.7 74.3658 9.404 73.9818 10.3C73.5978 11.1533 73.0004 12.4333 72.1898 14.14C71.8484 14.9933 71.4858 15.804 71.1018 16.572C70.7178 17.2973 70.5258 17.7453 70.5258 17.916C70.5258 18.0867 70.4404 18.3427 70.2698 18.684C70.1418 19.0253 69.9924 19.452 69.8218 19.964C69.6511 20.3053 69.4164 20.8173 69.1178 21.5C68.8191 22.14 68.4991 22.844 68.1578 23.612C67.8591 24.3373 67.6031 24.9773 67.3898 25.532C67.1764 26.044 67.0698 26.3427 67.0698 26.428C67.0698 26.5987 67.0484 26.7693 67.0058 26.94C67.0058 27.1107 66.9204 27.2813 66.7498 27.452C66.5791 27.452 66.4724 27.58 66.4298 27.836C66.4298 28.0493 66.4298 28.156 66.4298 28.156C66.4298 28.5827 66.0884 29.7133 65.4058 31.548C64.7231 33.8947 64.0831 36.0493 63.4858 38.012C62.9311 39.9747 62.6538 41.5533 62.6538 42.748C62.6538 43.772 62.4831 44.5613 62.1418 45.116C61.8431 45.6707 61.5231 46.0333 61.1818 46.204ZM71.5328 43.964C71.1061 43.708 70.6368 43.3453 70.1248 42.876C69.6128 42.364 69.3568 41.8733 69.3568 41.404C69.3568 40.764 69.4421 39.9747 69.6128 39.036C69.7834 38.0547 69.9541 37.2227 70.1248 36.54C70.2101 35.772 70.3168 35.004 70.4448 34.236C70.6154 33.4253 70.9141 32.6787 71.3408 31.996C71.8101 30.3747 72.3008 28.7747 72.8128 27.196C73.3248 25.5747 73.7728 23.9107 74.1568 22.204C74.7114 20.6253 75.2021 19.2387 75.6288 18.044C76.0981 16.8067 76.6741 15.2493 77.3568 13.372C77.7408 12.3053 78.0608 11.1747 78.3168 9.98C78.6154 8.74266 79.0634 7.63333 79.6608 6.652C79.9168 6.268 80.1088 5.948 80.2368 5.692C80.4074 5.39333 80.5781 5.116 80.7488 4.86C80.7914 4.68933 81.0048 4.54 81.3888 4.412C81.8154 4.284 82.2421 4.22 82.6688 4.22C83.1381 4.17733 83.4581 4.26266 83.6288 4.476C83.7568 4.43333 83.9701 4.604 84.2688 4.988C84.5674 5.32933 84.8448 5.73467 85.1008 6.204C85.3994 6.63066 85.5274 6.972 85.4848 7.228C85.4848 7.39866 85.4421 7.63333 85.3568 7.932C85.3141 8.23066 85.2074 8.508 85.0368 8.764C84.8661 8.93466 84.6954 9.19066 84.5248 9.532C84.3968 9.83067 84.1834 10.2573 83.8848 10.812C83.7141 11.3667 83.5648 11.9427 83.4368 12.54C83.3088 13.0947 83.1381 13.6067 82.9248 14.076C82.7541 14.588 82.5408 15.0787 82.2847 15.548C82.0714 16.0173 81.9221 16.4013 81.8368 16.7C81.5381 17.6813 81.1754 18.6413 80.7488 19.58C80.3648 20.5187 80.0234 21.5213 79.7248 22.588C79.4261 23.612 79.1274 24.6787 78.8288 25.788C78.5301 26.8547 78.1034 27.8787 77.5488 28.86C77.2501 29.3293 77.0368 29.9267 76.9088 30.652C76.7808 31.3773 76.6528 32.1027 76.5248 32.828C76.2688 33.596 76.0341 34.3213 75.8208 35.004C75.6501 35.644 75.5648 36.0493 75.5648 36.22C75.3088 37.1587 75.1168 38.0973 74.9888 39.036C74.9034 39.932 74.6901 40.7213 74.3488 41.404C74.3061 41.8307 74.1568 42.3 73.9008 42.812C73.6448 43.324 73.3034 43.708 72.8767 43.964C72.4928 44.22 72.0448 44.22 71.5328 43.964ZM84.8278 60.732C84.6571 60.7747 84.4011 60.7107 84.0598 60.54C83.7611 60.3693 83.5051 60.0707 83.2917 59.644C83.0784 59.2173 83.0144 58.6627 83.0998 57.98C82.9291 57.3827 82.9504 56.636 83.1638 55.74C83.4198 54.8867 83.9531 53.6067 84.7638 51.9C85.1904 51.2173 85.5744 50.4067 85.9158 49.468C86.2998 48.5293 86.7264 47.5907 87.1958 46.652C87.4091 46.268 87.7718 45.6067 88.2838 44.668C88.8384 43.7293 89.4358 42.62 90.0758 41.34C90.7584 40.0173 91.3771 38.652 91.9318 37.244C90.8224 38.396 89.8624 39.484 89.0518 40.508C88.2838 41.4893 87.5798 42.2787 86.9398 42.876C86.3424 43.4307 85.7024 43.6867 85.0198 43.644C84.4651 43.516 83.8038 43.1533 83.0358 42.556C82.2678 41.9587 81.7771 41.2973 81.5638 40.572C81.3931 39.6333 81.3291 38.4387 81.3718 36.988C81.4571 35.5373 81.7344 33.34 82.2038 30.396C82.5451 28.9453 82.6944 27.836 82.6518 27.068C82.6518 26.2573 82.5451 25.66 82.3318 25.276C82.1184 24.892 81.8411 24.5507 81.4998 24.252C80.9451 23.74 80.9024 23.1853 81.3718 22.588C81.8411 21.9907 82.3744 21.5427 82.9718 21.244C83.8678 21.0307 84.5718 20.988 85.0838 21.116C85.6384 21.2013 86.1931 21.564 86.7478 22.204C87.0891 22.7587 87.4304 23.356 87.7718 23.996C88.1131 24.636 88.2838 25.5533 88.2838 26.748C88.2838 27.26 88.2624 27.836 88.2198 28.476C88.1771 29.0733 88.1344 29.628 88.0918 30.14C88.0491 30.652 88.0064 31.0573 87.9638 31.356C87.5371 32.9347 87.1531 34.3 86.8118 35.452C86.4704 36.604 86.4064 37.18 86.6198 37.18C87.4731 36.4973 88.1984 35.836 88.7958 35.196C89.4358 34.556 90.1184 33.788 90.8438 32.892C91.5691 31.996 92.4651 30.8227 93.5318 29.372C93.9158 28.6467 94.2998 27.9427 94.6838 27.26C95.0678 26.5773 95.3878 25.8733 95.6438 25.148C95.8998 24.5933 96.2411 24.0173 96.6678 23.42C97.0944 22.78 97.3931 22.4387 97.5638 22.396C97.7771 22.3107 98.0758 22.332 98.4598 22.46C98.8438 22.588 99.2064 22.7373 99.5478 22.908C99.9318 23.036 100.124 23.1427 100.124 23.228C100.166 23.2707 100.38 23.3133 100.764 23.356C101.148 23.3987 101.532 23.4413 101.916 23.484C102.3 23.484 102.492 23.548 102.492 23.676C102.492 23.7613 102.364 24.0813 102.108 24.636C101.894 25.1907 101.638 25.8093 101.34 26.492C101.041 27.1747 100.764 27.7933 100.508 28.348C100.294 28.86 100.209 29.1587 100.252 29.244C100.337 29.3293 100.273 29.6493 100.06 30.204C99.8464 30.716 99.5904 31.292 99.2918 31.932C99.0358 32.572 98.8011 33.148 98.5878 33.66C98.1611 35.068 97.6704 36.476 97.1158 37.884C96.5611 39.2493 95.8998 40.6147 95.1318 41.98C94.8758 42.492 94.4918 43.2813 93.9798 44.348C93.5104 45.4147 93.0411 46.46 92.5718 47.484C92.1451 48.5507 91.8038 49.3613 91.5478 49.916C91.3771 50.2573 91.1211 50.7907 90.7798 51.516C90.4811 52.284 90.1398 53.116 89.7558 54.012C89.4144 54.908 89.0731 55.74 88.7318 56.508C88.3904 57.3187 88.1344 57.9373 87.9638 58.364C87.8784 59.1747 87.6864 59.772 87.3878 60.156C87.0038 60.54 86.4704 60.732 85.7878 60.732C85.1478 60.732 84.8278 60.732 84.8278 60.732ZM110.608 17.724C110.182 17.7667 109.648 17.7667 109.008 17.724C108.411 17.6813 108.048 17.276 107.92 16.508C107.878 16.2093 107.92 15.932 108.048 15.676C108.176 15.42 108.347 15.1427 108.56 14.844C109.072 13.9907 109.648 13.052 110.288 12.028C110.971 11.004 111.419 10.172 111.632 9.532C111.632 9.36133 111.654 9.212 111.696 9.084C110.971 9.212 110.224 8.956 109.456 8.316C108.646 7.548 108.411 6.54533 108.752 5.308C109.136 4.028 109.883 3.004 110.992 2.236C111.76 1.76666 112.486 1.51066 113.168 1.468C113.851 1.42533 114.576 1.57467 115.344 1.916C116.07 2.34267 116.667 3.004 117.136 3.9C117.606 4.75333 117.734 5.45733 117.52 6.012C117.392 6.99333 117.158 7.91066 116.816 8.764C116.518 9.61733 116.24 10.4493 115.984 11.26C115.728 12.1987 115.195 13.2013 114.384 14.268C113.616 15.292 112.87 16.2307 112.144 17.084C112.187 17.2547 112.059 17.3613 111.76 17.404C111.462 17.4467 111.078 17.5533 110.608 17.724ZM113.948 45.884C112.498 45.2867 111.431 44.668 110.748 44.028C110.108 43.3453 109.852 42.748 109.98 42.236C110.066 41.98 110.215 41.7453 110.428 41.532C110.642 41.3187 111.111 41.2333 111.836 41.276C112.604 41.276 113.778 41.468 115.356 41.852C115.826 41.852 116.295 41.8307 116.764 41.788C117.234 41.7453 117.66 41.6813 118.044 41.596C118.471 41.5107 118.812 41.404 119.068 41.276C119.282 41.1907 119.346 41.084 119.26 40.956C119.175 40.7853 119.026 40.6147 118.812 40.444C118.642 40.2307 118.45 40.1027 118.236 40.06C118.023 39.9747 117.831 39.932 117.66 39.932C117.575 39.7187 117.383 39.5053 117.084 39.292C116.828 39.0787 116.508 38.844 116.124 38.588C115.186 37.82 114.332 37.1373 113.564 36.54C112.796 35.9427 112.498 35.4947 112.668 35.196C112.668 35.0253 112.668 34.94 112.668 34.94C112.668 34.8973 112.668 34.876 112.668 34.876C112.37 34.876 112.092 34.4707 111.836 33.66C111.58 32.8067 111.452 32.0387 111.452 31.356C111.452 30.5027 111.623 29.6493 111.964 28.796C112.348 27.9427 112.818 27.132 113.372 26.364C113.97 25.596 114.567 24.9133 115.164 24.316C115.975 23.548 116.828 22.8013 117.724 22.076C118.663 21.308 119.666 20.6253 120.732 20.028C121.842 19.4307 123.058 18.9613 124.38 18.62C124.978 18.492 125.66 18.428 126.428 18.428C127.196 18.428 127.751 18.5347 128.092 18.748C128.434 18.5347 128.86 18.5987 129.372 18.94C129.884 19.2387 130.396 19.6653 130.908 20.22C131.42 20.7747 131.804 21.3293 132.06 21.884C132.06 22.396 132.039 23.036 131.996 23.804C131.996 24.5293 131.954 25.1693 131.868 25.724C131.783 26.2787 131.591 26.556 131.292 26.556C131.292 26.556 131.228 26.5773 131.1 26.62C131.015 26.62 130.972 26.7267 130.972 26.94C130.972 27.3667 130.652 27.8573 130.012 28.412C129.202 28.9667 128.434 29.4147 127.708 29.756C126.983 30.0973 126.428 30.1187 126.044 29.82C125.788 29.6493 125.554 29.4787 125.34 29.308C125.127 29.1373 124.935 28.924 124.764 28.668C124.764 28.668 124.7 28.5827 124.572 28.412C124.487 28.1987 124.444 28.0067 124.444 27.836C124.444 27.6653 124.508 27.516 124.636 27.388C124.764 27.2173 124.828 27.132 124.828 27.132C125.426 26.5773 125.874 26.0653 126.172 25.596C126.514 25.1267 126.748 24.7213 126.876 24.38C127.004 23.996 127.068 23.6973 127.068 23.484C127.068 23.228 127.004 23.0787 126.876 23.036C126.791 22.9507 126.578 22.908 126.236 22.908C126.023 22.908 125.554 23.0787 124.828 23.42C124.146 23.7613 123.42 24.188 122.652 24.7C121.884 25.1693 121.287 25.596 120.86 25.98C120.69 26.2787 120.562 26.4707 120.476 26.556C120.434 26.6413 120.327 26.684 120.156 26.684C120.156 26.5133 120.05 26.5347 119.836 26.748C119.623 26.9613 119.367 27.26 119.068 27.644C118.77 28.028 118.471 28.4333 118.172 28.86C117.874 29.2867 117.639 29.628 117.468 29.884C117.426 30.268 117.319 30.6307 117.148 30.972C117.02 31.2707 116.978 31.5907 117.02 31.932C117.063 32.3587 117.276 32.764 117.66 33.148C118.044 33.532 118.599 34.0227 119.324 34.62C120.818 35.7293 121.927 36.604 122.652 37.244C123.42 37.884 123.954 38.396 124.252 38.78C124.551 39.164 124.743 39.548 124.828 39.932C125.554 41.2547 125.639 42.4067 125.084 43.388C124.53 44.3267 123.676 45.052 122.524 45.564C122.098 45.7773 121.351 45.9693 120.284 46.14C119.218 46.3533 118.087 46.4387 116.892 46.396C115.74 46.396 114.759 46.2253 113.948 45.884Z" fill="white"/>
</svg>
