<svg width="218" height="33" viewBox="0 0 218 33" fill="none" xmlns="http://www.w3.org/2000/svg">
<path d="M124.564 0.746758C125.731 1.11527 128.004 2.5893 129.601 4.06334L132.61 6.76575L135.251 5.23029C136.725 4.43185 139.059 3.44916 140.472 3.01923C145.815 1.66803 151.281 4.80036 153.984 10.9422C155.274 13.7674 155.642 14.1359 156.809 13.8288C161.415 12.4776 168.356 12.8462 184.57 15.18L201.153 17.5754L208.462 12.7847C212.454 10.0823 216.262 7.93269 216.876 7.93269C219.149 7.93269 217.982 9.83666 213.314 13.5832C210.734 15.7328 207.909 18.0667 207.049 18.8037L205.452 20.1549L211.226 25.6212C216.692 30.8417 217.675 32.5 215.156 32.5C213.498 32.5 206.742 27.7708 203.426 24.27L200.293 21.0148L192.432 20.6463C188.132 20.4006 181.806 19.7864 178.428 19.2337C171.427 18.0667 158.406 17.8825 155.826 18.9266C154.905 19.2951 153.984 20.0935 153.738 20.6463C152.018 25.5597 145.57 25.8668 145.57 21.0762C145.57 20.5234 146.736 18.9266 148.088 17.6368C150.606 15.2415 150.606 15.18 149.93 12.8462C148.456 7.80986 143.358 5.90589 138.261 8.48546C135.006 10.1438 134.269 11.3107 134.391 14.2588C134.637 17.8825 132.672 20.9534 130.399 20.7077C129.355 20.5849 128.372 19.9093 127.758 18.8651C126.96 17.3297 126.96 16.8998 127.942 14.0745C128.925 11.3107 128.925 10.8808 128.065 9.22248C126.96 7.07284 124.196 4.98462 121.801 4.49327C119.528 4.06334 115.106 5.16887 112.588 6.88858C110.623 8.23979 110.623 8.23979 110.93 12.5391C111.298 17.3911 110.315 20.0935 107.306 22.3046L105.648 23.5329L103.989 22.3046C101.471 20.4006 101.103 17.8825 102.638 13.6446C104.604 8.17837 104.542 7.31851 101.655 5.66022C97.1105 3.08065 91.9514 4.37043 87.6521 9.03822C85.5025 11.495 85.3796 11.802 85.3796 15.9785C85.3796 21.9361 83.5371 25.1912 80.7733 24.1471C78.3779 23.2258 78.0094 19.6636 79.7906 14.5044L81.0189 11.0036L79.4835 9.22248C77.3952 6.70433 74.5086 5.84447 71.1306 6.70433C67.3227 7.74844 64.436 10.3894 60.8123 15.9785C59.0926 18.6809 56.943 21.199 56.0831 21.629C54.8548 22.1817 51.5382 21.9975 40.6057 20.9534C21.7503 19.0494 23.4086 18.8651 21.1976 23.4715C19.9692 26.0511 18.9865 27.3409 18.1266 27.4637C16.3455 27.7094 4.18469 20.6463 1.91222 18.0667C-2.26422 13.3375 0.438171 10.0209 9.65091 8.6083C17.6967 7.37993 22.6716 7.87127 24.0842 10.0209C24.3299 10.3894 24.5755 11.7406 24.5755 13.0304C24.5755 14.3202 24.8826 15.4257 25.3126 15.61C26.9709 16.1627 53.2579 17.7596 54.302 17.3911C54.8548 17.2069 55.8989 15.8556 56.5745 14.5044C58.2328 11.3107 62.9005 6.33582 66.0329 4.55469C71.1306 1.60661 77.3338 2.03654 81.4489 5.5988L83.5985 7.50277L85.871 5.35313C91.8285 -0.358772 99.6287 -1.28004 105.648 3.08065L108.104 4.86178L110.745 3.20349C115.536 0.193993 120.265 -0.665863 124.564 0.746758Z" fill="white" fill-opacity="0.8"/>
</svg>
